<svg id="Layer_1" data-name="Layer 1" xmlns="http://www.w3.org/2000/svg" viewBox="0 0 232 232"><defs><style>.cls-1{fill:#050505;}</style></defs><path class="cls-1" d="M150,34A116,116,0,1,0,266,150,116,116,0,0,0,150,34Zm0,222.25A106.25,106.25,0,1,1,256.25,150,106.25,106.25,0,0,1,150,256.25Z" transform="translate(-34 -34)"/><path d="M184.21,113A33.42,33.42,0,0,0,153.4,77.1c-1-.08-1.94-.11-2.92-.1a33.43,33.43,0,0,0-33.82,33c0,1,0,2,.09,2.92a61,61,0,0,0,12.79,41.58,1.85,1.85,0,0,1,0,.81,13.83,13.83,0,0,1,0,8.35,2.89,2.89,0,0,1-1.51,1.62L123.3,167c-21.75,8-37.46,13.89-42.29,23.66A68,68,0,0,0,75,218a5,5,0,0,0,5,5H221a5,5,0,0,0,5-5,68,68,0,0,0-6.65-27.29c-4.83-10.07-20.13-15.61-42.28-23.66l-4.74-1.71a3,3,0,0,1-1.51-1.62,14.85,14.85,0,0,1,0-8.15,2.06,2.06,0,0,1,.51-.91A61.6,61.6,0,0,0,184.21,113Z" transform="translate(-34 -34)"/></svg>